<svg width="50" height="50" viewBox="0 0 50 50" fill="none" xmlns="http://www.w3.org/2000/svg">
<g id="ArrowRightCircleFill" clip-path="url(#clip0_0_36)">
<path id="Vector" d="M25 50C18.3696 50 12.0107 47.3661 7.32233 42.6777C2.63392 37.9893 0 31.6304 0 25C0 18.3696 2.63392 12.0107 7.32233 7.32233C12.0107 2.63392 18.3696 0 25 0C31.6304 0 37.9893 2.63392 42.6777 7.32233C47.3661 12.0107 50 18.3696 50 25C50 31.6304 47.3661 37.9893 42.6777 42.6777C37.9893 47.3661 31.6304 50 25 50V50ZM35.9375 26.5625C36.3519 26.5625 36.7493 26.3979 37.0424 26.1049C37.3354 25.8118 37.5 25.4144 37.5 25C37.5 24.5856 37.3354 24.1882 37.0424 23.8951C36.7493 23.6021 36.3519 23.4375 35.9375 23.4375L17.8344 23.4375L24.5438 16.7313C24.689 16.586 24.8043 16.4135 24.8829 16.2237C24.9615 16.0339 25.002 15.8304 25.002 15.625C25.002 15.4196 24.9615 15.2161 24.8829 15.0263C24.8043 14.8365 24.689 14.664 24.5438 14.5187C24.3985 14.3735 24.226 14.2582 24.0362 14.1796C23.8464 14.101 23.643 14.0605 23.4375 14.0605C23.232 14.0605 23.0286 14.101 22.8388 14.1796C22.649 14.2582 22.4765 14.3735 22.3312 14.5187L12.9562 23.8937C12.8107 24.0389 12.6953 24.2113 12.6165 24.4011C12.5378 24.591 12.4972 24.7945 12.4972 25C12.4972 25.2055 12.5378 25.409 12.6165 25.5989C12.6953 25.7887 12.8107 25.9611 12.9562 26.1063L22.3312 35.4813C22.4765 35.6265 22.649 35.7418 22.8388 35.8204C23.0286 35.899 23.232 35.9395 23.4375 35.9395C23.643 35.9395 23.8464 35.899 24.0362 35.8204C24.226 35.7418 24.3985 35.6265 24.5438 35.4813C24.689 35.336 24.8043 35.1635 24.8829 34.9737C24.9615 34.7839 25.002 34.5805 25.002 34.375C25.002 34.1695 24.9615 33.9661 24.8829 33.7763C24.8043 33.5865 24.689 33.414 24.5438 33.2687L17.8344 26.5625L35.9375 26.5625Z" fill="#5FFBF1"/>
</g>
<defs>
<clipPath id="clip0_0_36">
<rect width="50" height="50" fill="white" transform="matrix(-1 0 0 -1 50 50)"/>
</clipPath>
</defs>
</svg>
